<svg width="329" height="363" viewBox="0 0 329 363" fill="none" xmlns="http://www.w3.org/2000/svg">
<rect width="231" height="147" transform="matrix(4.37114e-08 -1 -1 -4.37113e-08 147 231)" fill="#FCFCFC"/>
<circle cx="38" cy="72" r="3" transform="rotate(-180 38 72)" fill="#FCFCFC"/>
<circle cx="182" cy="72" r="3" transform="rotate(-180 182 72)" fill="#FCFCFC"/>
<circle cx="326" cy="72" r="3" transform="rotate(-180 326 72)" fill="#FCFCFC"/>
<circle cx="134" cy="72" r="3" transform="rotate(-180 134 72)" fill="#FCFCFC"/>
<circle cx="278" cy="72" r="3" transform="rotate(-180 278 72)" fill="#FCFCFC"/>
<circle cx="38" cy="168" r="3" transform="rotate(-180 38 168)" fill="#FCFCFC"/>
<circle cx="182" cy="168" r="3" transform="rotate(-180 182 168)" fill="#FCFCFC"/>
<circle cx="326" cy="168" r="3" transform="rotate(-180 326 168)" fill="#FCFCFC"/>
<circle cx="38" cy="264" r="3" transform="rotate(-180 38 264)" fill="#FCFCFC"/>
<circle cx="182" cy="264" r="3" transform="rotate(-180 182 264)" fill="#FCFCFC"/>
<circle cx="326" cy="264" r="3" transform="rotate(-180 326 264)" fill="#FCFCFC"/>
<circle cx="134" cy="168" r="3" transform="rotate(-180 134 168)" fill="#FCFCFC"/>
<circle cx="278" cy="168" r="3" transform="rotate(-180 278 168)" fill="#FCFCFC"/>
<circle cx="134" cy="264" r="3" transform="rotate(-180 134 264)" fill="#FCFCFC"/>
<circle cx="278" cy="264" r="3" transform="rotate(-180 278 264)" fill="#FCFCFC"/>
<circle cx="86" cy="72" r="3" transform="rotate(-180 86 72)" fill="#FCFCFC"/>
<circle cx="230" cy="72" r="3" transform="rotate(-180 230 72)" fill="#FCFCFC"/>
<circle cx="86" cy="168" r="3" transform="rotate(-180 86 168)" fill="#FCFCFC"/>
<circle cx="230" cy="168" r="3" transform="rotate(-180 230 168)" fill="#FCFCFC"/>
<circle cx="86" cy="264" r="3" transform="rotate(-180 86 264)" fill="#FCFCFC"/>
<circle cx="230" cy="264" r="3" transform="rotate(-180 230 264)" fill="#FCFCFC"/>
<circle cx="38" cy="120" r="3" transform="rotate(-180 38 120)" fill="#FCFCFC"/>
<circle cx="182" cy="120" r="3" transform="rotate(-180 182 120)" fill="#FCFCFC"/>
<circle cx="326" cy="120" r="3" transform="rotate(-180 326 120)" fill="#FCFCFC"/>
<circle cx="134" cy="120" r="3" transform="rotate(-180 134 120)" fill="#FCFCFC"/>
<circle cx="278" cy="120" r="3" transform="rotate(-180 278 120)" fill="#FCFCFC"/>
<circle cx="38" cy="216" r="3" transform="rotate(-180 38 216)" fill="#FCFCFC"/>
<circle cx="182" cy="216" r="3" transform="rotate(-180 182 216)" fill="#FCFCFC"/>
<circle cx="326" cy="216" r="3" transform="rotate(-180 326 216)" fill="#FCFCFC"/>
<circle cx="38" cy="312" r="3" transform="rotate(-180 38 312)" fill="#FCFCFC"/>
<circle cx="182" cy="312" r="3" transform="rotate(-180 182 312)" fill="#FCFCFC"/>
<circle cx="326" cy="312" r="3" transform="rotate(-180 326 312)" fill="#FCFCFC"/>
<circle cx="38" cy="360" r="3" transform="rotate(-180 38 360)" fill="#FCFCFC"/>
<circle cx="182" cy="360" r="3" transform="rotate(-180 182 360)" fill="#FCFCFC"/>
<circle cx="326" cy="360" r="3" transform="rotate(-180 326 360)" fill="#FCFCFC"/>
<circle cx="134" cy="216" r="3" transform="rotate(-180 134 216)" fill="#FCFCFC"/>
<circle cx="278" cy="216" r="3" transform="rotate(-180 278 216)" fill="#FCFCFC"/>
<circle cx="134" cy="312" r="3" transform="rotate(-180 134 312)" fill="#FCFCFC"/>
<circle cx="278" cy="312" r="3" transform="rotate(-180 278 312)" fill="#FCFCFC"/>
<circle cx="86" cy="120" r="3" transform="rotate(-180 86 120)" fill="#FCFCFC"/>
<circle cx="230" cy="120" r="3" transform="rotate(-180 230 120)" fill="#FCFCFC"/>
<circle cx="134" cy="360" r="3" fill="#FCFCFC"/>
<circle cx="278" cy="360" r="3" fill="#FCFCFC"/>
<circle cx="86" cy="216" r="3" transform="rotate(-180 86 216)" fill="#FCFCFC"/>
<circle cx="230" cy="216" r="3" transform="rotate(-180 230 216)" fill="#FCFCFC"/>
<circle cx="86" cy="312" r="3" transform="rotate(-180 86 312)" fill="#FCFCFC"/>
<circle cx="230" cy="312" r="3" transform="rotate(-180 230 312)" fill="#FCFCFC"/>
<circle cx="86" cy="360" r="3" transform="rotate(-180 86 360)" fill="#FCFCFC"/>
<circle cx="230" cy="360" r="3" transform="rotate(-180 230 360)" fill="#FCFCFC"/>
</svg>
