<svg width="23" height="22" viewBox="0 0 23 22" fill="none" xmlns="http://www.w3.org/2000/svg">
<path d="M10.536 0.0778128C5.4695 0.63992 1.39427 4.79951 0.84356 9.85848C0.182711 15.4796 3.5971 20.3137 8.44332 21.8876V19.3019C8.44332 19.3019 8.00276 19.4143 7.45205 19.4143C5.91007 19.4143 5.24922 18.0652 5.13908 17.2783C5.02894 16.8286 4.80865 16.4913 4.47823 16.1541C4.14781 16.0417 4.03766 16.0417 4.03766 15.9292C4.03766 15.7044 4.36809 15.7044 4.47823 15.7044C5.13908 15.7044 5.68979 16.4913 5.91007 16.8286C6.46078 17.728 7.12163 17.9528 7.45205 17.9528C7.89262 17.9528 8.22304 17.8404 8.44332 17.728C8.55347 16.941 8.88389 16.1541 9.54474 15.7044C7.01148 15.1423 5.13908 13.6808 5.13908 11.2075C5.13908 9.9709 5.68979 8.73427 6.46078 7.83489C6.35063 7.61005 6.24049 7.04794 6.24049 6.26099C6.24049 5.81131 6.24049 5.13678 6.57092 4.46225C6.57092 4.46225 8.1129 4.46225 9.65488 5.92373C10.2056 5.69889 10.9766 5.58646 11.7476 5.58646C12.5186 5.58646 13.2895 5.69889 13.9504 5.92373C15.3822 4.46225 17.0344 4.46225 17.0344 4.46225C17.2546 5.13678 17.2546 5.81131 17.2546 6.26099C17.2546 7.16037 17.1445 7.61005 17.0344 7.83489C17.8054 8.73427 18.3561 9.85848 18.3561 11.2075C18.3561 13.6808 16.4837 15.1423 13.9504 15.7044C14.6112 16.2665 15.0518 17.2783 15.0518 18.2901V22C19.5676 20.5385 22.7617 16.2665 22.7617 11.32C22.7617 4.57467 17.1445 -0.709137 10.536 0.0778128Z" fill="#FCFCFC"/>
</svg>
