<svg width="27" height="26" viewBox="0 0 27 26" fill="none" xmlns="http://www.w3.org/2000/svg">
<path fill-rule="evenodd" clip-rule="evenodd" d="M5.00625 9.44995C6.25304 6.37621 9.07053 4.10735 12.4629 3.63917C12.2934 3.75421 12.1305 3.8901 11.9748 4.04388C11.4524 4.55998 10.9956 5.29191 10.6185 6.17264C10.2199 7.10367 9.90364 8.21649 9.69396 9.44995H5.00625ZM4.78635 10.05H9.60175C9.47339 10.9817 9.40444 11.973 9.40444 12.9999C9.40444 14.0268 9.47339 15.0182 9.60175 15.95H4.78635C4.48163 15.0217 4.3168 14.0301 4.3168 13C4.3168 11.9698 4.48163 10.9782 4.78635 10.05ZM10.0044 12.9999C10.0044 14.033 10.0761 15.0248 10.2076 15.95H13.2423L13.4649 16.55H10.3029C10.5053 17.7012 10.8027 18.7329 11.1701 19.5911C11.5282 20.4274 11.9468 21.085 12.3965 21.5291C12.8448 21.972 13.3076 22.1882 13.7669 22.1882C14.2263 22.1882 14.6891 21.972 15.1374 21.5291C15.1797 21.4874 15.2216 21.4438 15.2633 21.3983L15.4936 22.0192C15.3579 22.1472 15.2169 22.2617 15.071 22.3607C15.245 22.3367 15.4175 22.3079 15.5883 22.2745L15.7997 22.8442C15.1431 22.9791 14.4632 23.05 13.7668 23.05C9.39576 23.05 5.67647 20.2595 4.29321 16.3628C4.28978 16.3543 4.28672 16.3457 4.28406 16.3369C3.91664 15.2928 3.7168 14.1697 3.7168 13C3.7168 11.8302 3.91664 10.7071 4.28406 9.663C4.28672 9.65419 4.28978 9.64556 4.29321 9.63712C5.67647 5.74043 9.39576 2.94995 13.7668 2.94995C19.3173 2.94995 23.8168 7.44949 23.8168 13C23.8168 14.0366 23.6599 15.0365 23.3684 15.9773L22.8061 15.7642C23.0731 14.8898 23.2168 13.9617 23.2168 13C23.2168 11.9698 23.052 10.9782 22.7472 10.05H17.9321C18.0605 10.9817 18.1294 11.973 18.1294 12.9999C18.1294 13.3316 18.1222 13.6596 18.1082 13.9831L17.5165 13.7588C17.5251 13.5086 17.5294 13.2555 17.5294 12.9999C17.5294 11.9669 17.4578 10.9751 17.3263 10.05H10.2076C10.0761 10.9751 10.0044 11.9669 10.0044 12.9999ZM5.00625 16.55H9.69397C9.90365 17.7834 10.2199 18.8962 10.6185 19.8272C10.9956 20.708 11.4524 21.4399 11.9748 21.956C12.1305 22.1098 12.2934 22.2457 12.463 22.3607C9.07056 21.8926 6.25304 19.6237 5.00625 16.55ZM22.5273 9.44995H17.8399C17.6302 8.21649 17.314 7.10367 16.9153 6.17264C16.5383 5.29191 16.0815 4.55998 15.5591 4.04388C15.4034 3.89012 15.2405 3.75425 15.071 3.63922C18.4633 4.10751 21.2806 6.37632 22.5273 9.44995ZM11.1701 6.4088C10.8027 7.26694 10.5053 8.29867 10.3029 9.44995H17.231C17.0286 8.29867 16.7312 7.26694 16.3638 6.4088C16.0057 5.57249 15.587 4.91489 15.1374 4.47073C14.6891 4.02783 14.2263 3.81167 13.7669 3.81167C13.3076 3.81167 12.8448 4.02783 12.3965 4.47073C11.9468 4.91489 11.5282 5.57249 11.1701 6.4088Z" fill="#FCFCFC"/>
<path d="M20.1047 19.4608L22.9401 18.4297C23.0962 18.373 23.2311 18.2697 23.3268 18.1339C23.4224 17.9981 23.4741 17.8363 23.4749 17.6702C23.4758 17.5041 23.4257 17.3418 23.3314 17.205C23.2371 17.0683 23.1032 16.9637 22.9477 16.9054L15.0646 13.9492C14.9185 13.8944 14.7597 13.8828 14.6073 13.9159C14.4548 13.9489 14.3151 14.0251 14.2047 14.1354C14.0944 14.2458 14.0182 14.3855 13.9852 14.538C13.9522 14.6905 13.9638 14.8492 14.0186 14.9953L16.9747 22.8784C17.0319 23.0338 17.1356 23.1678 17.2717 23.2622C17.4078 23.3565 17.5697 23.4066 17.7353 23.4056H17.7395C17.9059 23.4058 18.0682 23.3545 18.2042 23.2587C18.3402 23.163 18.4432 23.0275 18.4991 22.8708L19.5301 20.0354L22.7353 23.2405C22.8115 23.3167 22.9149 23.3595 23.0226 23.3595C23.1304 23.3595 23.2337 23.3167 23.3099 23.2405C23.3861 23.1643 23.4289 23.061 23.4289 22.9533C23.4289 22.8455 23.3861 22.7422 23.3099 22.666L20.1047 19.4608Z" fill="#FCFCFC"/>
</svg>
