<svg width="438" height="150" viewBox="0 0 438 150" fill="none" xmlns="http://www.w3.org/2000/svg">
<circle cx="3" cy="99" r="3" transform="rotate(90 3 99)" fill="#FCFCFC"/>
<circle cx="339" cy="51" r="3" transform="rotate(-90 339 51)" fill="#FCFCFC"/>
<circle cx="387" cy="51" r="3" transform="rotate(-90 387 51)" fill="#FCFCFC"/>
<circle cx="435" cy="51" r="3" transform="rotate(-90 435 51)" fill="#FCFCFC"/>
<circle cx="3" cy="3" r="3" transform="rotate(90 3 3)" fill="#FCFCFC"/>
<circle cx="99" cy="99" r="3" transform="rotate(90 99 99)" fill="#FCFCFC"/>
<circle cx="243" cy="51" r="3" transform="rotate(-90 243 51)" fill="#FCFCFC"/>
<circle cx="99" cy="3" r="3" transform="rotate(90 99 3)" fill="#FCFCFC"/>
<circle cx="195" cy="99" r="3" transform="rotate(90 195 99)" fill="#FCFCFC"/>
<circle cx="3" cy="147" r="3" transform="rotate(90 3 147)" fill="#FCFCFC"/>
<circle cx="339" cy="3" r="3" transform="rotate(-90 339 3)" fill="#FCFCFC"/>
<circle cx="387" cy="3" r="3" transform="rotate(-90 387 3)" fill="#FCFCFC"/>
<circle cx="435" cy="3" r="3" transform="rotate(-90 435 3)" fill="#FCFCFC"/>
<circle cx="3" cy="51" r="3" transform="rotate(90 3 51)" fill="#FCFCFC"/>
<circle cx="339" cy="99" r="3" transform="rotate(-90 339 99)" fill="#FCFCFC"/>
<circle cx="387" cy="99" r="3" transform="rotate(-90 387 99)" fill="#FCFCFC"/>
<circle cx="435" cy="99" r="3" transform="rotate(-90 435 99)" fill="#FCFCFC"/>
<circle cx="339" cy="147" r="3" transform="rotate(-90 339 147)" fill="#FCFCFC"/>
<circle cx="387" cy="147" r="3" transform="rotate(-90 387 147)" fill="#FCFCFC"/>
<circle cx="435" cy="147" r="3" transform="rotate(-90 435 147)" fill="#FCFCFC"/>
<circle cx="99" cy="147" r="3" transform="rotate(90 99 147)" fill="#FCFCFC"/>
<circle cx="195" cy="147" r="3" transform="rotate(90 195 147)" fill="#FCFCFC"/>
<circle cx="243" cy="3" r="3" transform="rotate(-90 243 3)" fill="#FCFCFC"/>
<circle cx="99" cy="51" r="3" transform="rotate(90 99 51)" fill="#FCFCFC"/>
<circle cx="195" cy="51" r="3" transform="rotate(90 195 51)" fill="#FCFCFC"/>
<circle cx="51" cy="99" r="3" transform="rotate(90 51 99)" fill="#FCFCFC"/>
<circle cx="291" cy="51" r="3" transform="rotate(-90 291 51)" fill="#FCFCFC"/>
<circle cx="51" cy="3" r="3" transform="rotate(90 51 3)" fill="#FCFCFC"/>
<circle cx="147" cy="99" r="3" transform="rotate(90 147 99)" fill="#FCFCFC"/>
<circle cx="147" cy="3" r="3" transform="rotate(90 147 3)" fill="#FCFCFC"/>
<circle cx="243" cy="99" r="3" transform="rotate(90 243 99)" fill="#FCFCFC"/>
<circle cx="51" cy="147" r="3" transform="rotate(90 51 147)" fill="#FCFCFC"/>
<circle cx="291" cy="3" r="3" transform="rotate(-90 291 3)" fill="#FCFCFC"/>
<circle cx="51" cy="51" r="3" transform="rotate(90 51 51)" fill="#FCFCFC"/>
<circle cx="291" cy="99" r="3" transform="rotate(-90 291 99)" fill="#FCFCFC"/>
<circle cx="147" cy="147" r="3" transform="rotate(90 147 147)" fill="#FCFCFC"/>
<circle cx="243" cy="147" r="3" transform="rotate(90 243 147)" fill="#FCFCFC"/>
<circle cx="291" cy="147" r="3" transform="rotate(90 291 147)" fill="#FCFCFC"/>
<circle cx="195" cy="3" r="3" transform="rotate(-90 195 3)" fill="#FCFCFC"/>
<circle cx="147" cy="51" r="3" transform="rotate(90 147 51)" fill="#FCFCFC"/>
</svg>
