<svg width="150" height="438" viewBox="0 0 150 438" fill="none" xmlns="http://www.w3.org/2000/svg">
<circle cx="51" cy="3" r="3" transform="rotate(-180 51 3)" fill="#FCFCFC"/>
<circle cx="99" cy="339" r="3" fill="#FCFCFC"/>
<circle cx="99" cy="387" r="3" fill="#FCFCFC"/>
<circle cx="99" cy="435" r="3" fill="#FCFCFC"/>
<circle cx="147" cy="3" r="3" transform="rotate(-180 147 3)" fill="#FCFCFC"/>
<circle cx="51" cy="99" r="3" transform="rotate(-180 51 99)" fill="#FCFCFC"/>
<circle cx="99" cy="243" r="3" fill="#FCFCFC"/>
<circle cx="147" cy="99" r="3" transform="rotate(-180 147 99)" fill="#FCFCFC"/>
<circle cx="51" cy="195" r="3" transform="rotate(-180 51 195)" fill="#FCFCFC"/>
<circle cx="3" cy="3" r="3" transform="rotate(-180 3 3)" fill="#FCFCFC"/>
<circle cx="147" cy="339" r="3" fill="#FCFCFC"/>
<circle cx="147" cy="387" r="3" fill="#FCFCFC"/>
<circle cx="147" cy="435" r="3" fill="#FCFCFC"/>
<circle cx="99" cy="3" r="3" transform="rotate(-180 99 3)" fill="#FCFCFC"/>
<circle cx="51" cy="339" r="3" fill="#FCFCFC"/>
<circle cx="51" cy="387" r="3" fill="#FCFCFC"/>
<circle cx="51" cy="435" r="3" fill="#FCFCFC"/>
<circle cx="3" cy="339" r="3" fill="#FCFCFC"/>
<circle cx="3" cy="387" r="3" fill="#FCFCFC"/>
<circle cx="3" cy="435" r="3" fill="#FCFCFC"/>
<circle cx="3" cy="99" r="3" transform="rotate(-180 3 99)" fill="#FCFCFC"/>
<circle cx="3" cy="195" r="3" transform="rotate(-180 3 195)" fill="#FCFCFC"/>
<circle cx="147" cy="243" r="3" fill="#FCFCFC"/>
<circle cx="99" cy="99" r="3" transform="rotate(-180 99 99)" fill="#FCFCFC"/>
<circle cx="99" cy="195" r="3" transform="rotate(-180 99 195)" fill="#FCFCFC"/>
<circle cx="51" cy="51" r="3" transform="rotate(-180 51 51)" fill="#FCFCFC"/>
<circle cx="99" cy="291" r="3" fill="#FCFCFC"/>
<circle cx="147" cy="51" r="3" transform="rotate(-180 147 51)" fill="#FCFCFC"/>
<circle cx="51" cy="147" r="3" transform="rotate(-180 51 147)" fill="#FCFCFC"/>
<circle cx="147" cy="147" r="3" transform="rotate(-180 147 147)" fill="#FCFCFC"/>
<circle cx="51" cy="243" r="3" transform="rotate(-180 51 243)" fill="#FCFCFC"/>
<circle cx="3" cy="51" r="3" transform="rotate(-180 3 51)" fill="#FCFCFC"/>
<circle cx="147" cy="291" r="3" fill="#FCFCFC"/>
<circle cx="99" cy="51" r="3" transform="rotate(-180 99 51)" fill="#FCFCFC"/>
<circle cx="51" cy="291" r="3" fill="#FCFCFC"/>
<circle cx="3" cy="147" r="3" transform="rotate(-180 3 147)" fill="#FCFCFC"/>
<circle cx="3" cy="243" r="3" transform="rotate(-180 3 243)" fill="#FCFCFC"/>
<circle cx="3" cy="291" r="3" transform="rotate(-180 3 291)" fill="#FCFCFC"/>
<circle cx="147" cy="195" r="3" fill="#FCFCFC"/>
<circle cx="99" cy="147" r="3" transform="rotate(-180 99 147)" fill="#FCFCFC"/>
</svg>
