<svg width="294" height="294" viewBox="0 0 294 294" fill="none" xmlns="http://www.w3.org/2000/svg">
<circle cx="3" cy="3" r="3" transform="rotate(-180 3 3)" fill="#FCFCFC"/>
<circle cx="147" cy="3" r="3" transform="rotate(-180 147 3)" fill="#FCFCFC"/>
<circle cx="291" cy="3" r="3" transform="rotate(-180 291 3)" fill="#FCFCFC"/>
<circle cx="99" cy="3" r="3" transform="rotate(-180 99 3)" fill="#FCFCFC"/>
<circle cx="243" cy="3" r="3" transform="rotate(-180 243 3)" fill="#FCFCFC"/>
<circle cx="3" cy="99" r="3" transform="rotate(-180 3 99)" fill="#FCFCFC"/>
<circle cx="147" cy="99" r="3" transform="rotate(-180 147 99)" fill="#FCFCFC"/>
<circle cx="291" cy="99" r="3" transform="rotate(-180 291 99)" fill="#FCFCFC"/>
<circle cx="3" cy="195" r="3" transform="rotate(-180 3 195)" fill="#FCFCFC"/>
<circle cx="147" cy="195" r="3" transform="rotate(-180 147 195)" fill="#FCFCFC"/>
<circle cx="291" cy="195" r="3" transform="rotate(-180 291 195)" fill="#FCFCFC"/>
<circle cx="99" cy="99" r="3" transform="rotate(-180 99 99)" fill="#FCFCFC"/>
<circle cx="243" cy="99" r="3" transform="rotate(-180 243 99)" fill="#FCFCFC"/>
<circle cx="99" cy="195" r="3" transform="rotate(-180 99 195)" fill="#FCFCFC"/>
<circle cx="243" cy="195" r="3" transform="rotate(-180 243 195)" fill="#FCFCFC"/>
<circle cx="51" cy="3" r="3" transform="rotate(-180 51 3)" fill="#FCFCFC"/>
<circle cx="195" cy="3" r="3" transform="rotate(-180 195 3)" fill="#FCFCFC"/>
<circle cx="51" cy="99" r="3" transform="rotate(-180 51 99)" fill="#FCFCFC"/>
<circle cx="195" cy="99" r="3" transform="rotate(-180 195 99)" fill="#FCFCFC"/>
<circle cx="51" cy="195" r="3" transform="rotate(-180 51 195)" fill="#FCFCFC"/>
<circle cx="195" cy="195" r="3" transform="rotate(-180 195 195)" fill="#FCFCFC"/>
<circle cx="3" cy="51" r="3" transform="rotate(-180 3 51)" fill="#FCFCFC"/>
<circle cx="147" cy="51" r="3" transform="rotate(-180 147 51)" fill="#FCFCFC"/>
<circle cx="291" cy="51" r="3" transform="rotate(-180 291 51)" fill="#FCFCFC"/>
<circle cx="99" cy="51" r="3" transform="rotate(-180 99 51)" fill="#FCFCFC"/>
<circle cx="243" cy="51" r="3" transform="rotate(-180 243 51)" fill="#FCFCFC"/>
<circle cx="3" cy="147" r="3" transform="rotate(-180 3 147)" fill="#FCFCFC"/>
<circle cx="147" cy="147" r="3" transform="rotate(-180 147 147)" fill="#FCFCFC"/>
<circle cx="291" cy="147" r="3" transform="rotate(-180 291 147)" fill="#FCFCFC"/>
<circle cx="3" cy="243" r="3" transform="rotate(-180 3 243)" fill="#FCFCFC"/>
<circle cx="147" cy="243" r="3" transform="rotate(-180 147 243)" fill="#FCFCFC"/>
<circle cx="291" cy="243" r="3" transform="rotate(-180 291 243)" fill="#FCFCFC"/>
<circle cx="3" cy="291" r="3" transform="rotate(-180 3 291)" fill="#FCFCFC"/>
<circle cx="147" cy="291" r="3" transform="rotate(-180 147 291)" fill="#FCFCFC"/>
<circle cx="291" cy="291" r="3" transform="rotate(-180 291 291)" fill="#FCFCFC"/>
<circle cx="99" cy="147" r="3" transform="rotate(-180 99 147)" fill="#FCFCFC"/>
<circle cx="243" cy="147" r="3" transform="rotate(-180 243 147)" fill="#FCFCFC"/>
<circle cx="99" cy="243" r="3" transform="rotate(-180 99 243)" fill="#FCFCFC"/>
<circle cx="243" cy="243" r="3" transform="rotate(-180 243 243)" fill="#FCFCFC"/>
<circle cx="51" cy="51" r="3" transform="rotate(-180 51 51)" fill="#FCFCFC"/>
<circle cx="195" cy="51" r="3" transform="rotate(-180 195 51)" fill="#FCFCFC"/>
<circle cx="99" cy="291" r="3" fill="#FCFCFC"/>
<circle cx="243" cy="291" r="3" fill="#FCFCFC"/>
<circle cx="51" cy="147" r="3" transform="rotate(-180 51 147)" fill="#FCFCFC"/>
<circle cx="195" cy="147" r="3" transform="rotate(-180 195 147)" fill="#FCFCFC"/>
<circle cx="51" cy="243" r="3" transform="rotate(-180 51 243)" fill="#FCFCFC"/>
<circle cx="195" cy="243" r="3" transform="rotate(-180 195 243)" fill="#FCFCFC"/>
<circle cx="51" cy="291" r="3" transform="rotate(-180 51 291)" fill="#FCFCFC"/>
<circle cx="195" cy="291" r="3" transform="rotate(-180 195 291)" fill="#FCFCFC"/>
</svg>
