<svg width="348" height="348" viewBox="0 0 348 348" fill="none" xmlns="http://www.w3.org/2000/svg">
<circle cx="342" cy="342" r="6" fill="#0A0B0D"/>
<circle cx="6" cy="6" r="6" transform="rotate(-180 6 6)" fill="#0A0B0D"/>
<circle cx="246" cy="342" r="6" fill="#0A0B0D"/>
<circle cx="102" cy="6" r="6" transform="rotate(-180 102 6)" fill="#0A0B0D"/>
<circle cx="150" cy="342" r="6" fill="#0A0B0D"/>
<circle cx="198" cy="6" r="6" transform="rotate(-180 198 6)" fill="#0A0B0D"/>
<circle cx="342" cy="246" r="6" fill="#0A0B0D"/>
<circle cx="6" cy="102" r="6" transform="rotate(-180 6 102)" fill="#0A0B0D"/>
<circle cx="342" cy="150" r="6" fill="#0A0B0D"/>
<circle cx="6" cy="198" r="6" transform="rotate(-180 6 198)" fill="#0A0B0D"/>
<circle cx="246" cy="246" r="6" fill="#0A0B0D"/>
<circle cx="102" cy="102" r="6" transform="rotate(-180 102 102)" fill="#0A0B0D"/>
<circle cx="150" cy="246" r="6" fill="#0A0B0D"/>
<circle cx="198" cy="102" r="6" transform="rotate(-180 198 102)" fill="#0A0B0D"/>
<circle cx="246" cy="150" r="6" fill="#0A0B0D"/>
<circle cx="102" cy="198" r="6" transform="rotate(-180 102 198)" fill="#0A0B0D"/>
<circle cx="294" cy="342" r="6" fill="#0A0B0D"/>
<circle cx="54" cy="6" r="6" transform="rotate(-180 54 6)" fill="#0A0B0D"/>
<circle cx="198" cy="342" r="6" fill="#0A0B0D"/>
<circle cx="150" cy="6" r="6" transform="rotate(-180 150 6)" fill="#0A0B0D"/>
<circle cx="102" cy="342" r="6" fill="#0A0B0D"/>
<circle cx="246" cy="6" r="6" transform="rotate(-180 246 6)" fill="#0A0B0D"/>
<circle cx="54" cy="342" r="6" fill="#0A0B0D"/>
<circle cx="294" cy="6" r="6" transform="rotate(-180 294 6)" fill="#0A0B0D"/>
<circle cx="6" cy="342" r="6" fill="#0A0B0D"/>
<circle cx="342" cy="6" r="6" transform="rotate(-180 342 6)" fill="#0A0B0D"/>
<circle cx="294" cy="246" r="6" fill="#0A0B0D"/>
<circle cx="54" cy="102" r="6" transform="rotate(-180 54 102)" fill="#0A0B0D"/>
<circle cx="294" cy="150" r="6" fill="#0A0B0D"/>
<circle cx="54" cy="198" r="6" transform="rotate(-180 54 198)" fill="#0A0B0D"/>
<circle cx="198" cy="246" r="6" fill="#0A0B0D"/>
<circle cx="150" cy="102" r="6" transform="rotate(-180 150 102)" fill="#0A0B0D"/>
<circle cx="102" cy="246" r="6" fill="#0A0B0D"/>
<circle cx="246" cy="102" r="6" transform="rotate(-180 246 102)" fill="#0A0B0D"/>
<circle cx="198" cy="150" r="6" fill="#0A0B0D"/>
<circle cx="150" cy="198" r="6" transform="rotate(-180 150 198)" fill="#0A0B0D"/>
<circle cx="342" cy="294" r="6" fill="#0A0B0D"/>
<circle cx="6" cy="54" r="6" transform="rotate(-180 6 54)" fill="#0A0B0D"/>
<circle cx="246" cy="294" r="6" fill="#0A0B0D"/>
<circle cx="102" cy="54" r="6" transform="rotate(-180 102 54)" fill="#0A0B0D"/>
<circle cx="150" cy="294" r="6" fill="#0A0B0D"/>
<circle cx="198" cy="54" r="6" transform="rotate(-180 198 54)" fill="#0A0B0D"/>
<circle cx="342" cy="198" r="6" fill="#0A0B0D"/>
<circle cx="6" cy="150" r="6" transform="rotate(-180 6 150)" fill="#0A0B0D"/>
<circle cx="342" cy="102" r="6" fill="#0A0B0D"/>
<circle cx="6" cy="246" r="6" transform="rotate(-180 6 246)" fill="#0A0B0D"/>
<circle cx="342" cy="54" r="6" fill="#0A0B0D"/>
<circle cx="6" cy="294" r="6" transform="rotate(-180 6 294)" fill="#0A0B0D"/>
<circle cx="342" cy="6" r="6" fill="#0A0B0D"/>
<circle cx="6" cy="342" r="6" transform="rotate(-180 6 342)" fill="#0A0B0D"/>
<circle cx="246" cy="198" r="6" fill="#0A0B0D"/>
<circle cx="102" cy="150" r="6" transform="rotate(-180 102 150)" fill="#0A0B0D"/>
<circle cx="150" cy="198" r="6" fill="#0A0B0D"/>
<circle cx="198" cy="150" r="6" transform="rotate(-180 198 150)" fill="#0A0B0D"/>
<circle cx="246" cy="102" r="6" fill="#0A0B0D"/>
<circle cx="102" cy="246" r="6" transform="rotate(-180 102 246)" fill="#0A0B0D"/>
<circle cx="294" cy="294" r="6" fill="#0A0B0D"/>
<circle cx="54" cy="54" r="6" transform="rotate(-180 54 54)" fill="#0A0B0D"/>
<circle cx="198" cy="294" r="6" fill="#0A0B0D"/>
<circle cx="150" cy="54" r="6" transform="rotate(-180 150 54)" fill="#0A0B0D"/>
<circle cx="102" cy="294" r="6" fill="#0A0B0D"/>
<circle cx="246" cy="54" r="6" transform="rotate(-180 246 54)" fill="#0A0B0D"/>
<circle cx="54" cy="294" r="6" fill="#0A0B0D"/>
<circle cx="294" cy="54" r="6" transform="rotate(-180 294 54)" fill="#0A0B0D"/>
<circle cx="294" cy="198" r="6" fill="#0A0B0D"/>
<circle cx="54" cy="150" r="6" transform="rotate(-180 54 150)" fill="#0A0B0D"/>
<circle cx="294" cy="102" r="6" fill="#0A0B0D"/>
<circle cx="54" cy="246" r="6" transform="rotate(-180 54 246)" fill="#0A0B0D"/>
<circle cx="294" cy="54" r="6" fill="#0A0B0D"/>
<circle cx="54" cy="294" r="6" transform="rotate(-180 54 294)" fill="#0A0B0D"/>
<circle cx="198" cy="198" r="6" fill="#0A0B0D"/>
<circle cx="150" cy="150" r="6" transform="rotate(-180 150 150)" fill="#0A0B0D"/>
</svg>
