<svg width="156" height="444" viewBox="0 0 156 444" fill="none" xmlns="http://www.w3.org/2000/svg">
<circle cx="54" cy="6" r="6" transform="rotate(-180 54 6)" fill="#0A0B0D"/>
<circle cx="102" cy="342" r="6" fill="#0A0B0D"/>
<circle cx="102" cy="390" r="6" fill="#0A0B0D"/>
<circle cx="102" cy="438" r="6" fill="#0A0B0D"/>
<circle cx="150" cy="6" r="6" transform="rotate(-180 150 6)" fill="#0A0B0D"/>
<circle cx="54" cy="102" r="6" transform="rotate(-180 54 102)" fill="#0A0B0D"/>
<circle cx="102" cy="246" r="6" fill="#0A0B0D"/>
<circle cx="150" cy="102" r="6" transform="rotate(-180 150 102)" fill="#0A0B0D"/>
<circle cx="54" cy="198" r="6" transform="rotate(-180 54 198)" fill="#0A0B0D"/>
<circle cx="6" cy="6" r="6" transform="rotate(-180 6 6)" fill="#0A0B0D"/>
<circle cx="150" cy="342" r="6" fill="#0A0B0D"/>
<circle cx="150" cy="390" r="6" fill="#0A0B0D"/>
<circle cx="150" cy="438" r="6" fill="#0A0B0D"/>
<circle cx="102" cy="6" r="6" transform="rotate(-180 102 6)" fill="#0A0B0D"/>
<circle cx="54" cy="342" r="6" fill="#0A0B0D"/>
<circle cx="54" cy="390" r="6" fill="#0A0B0D"/>
<circle cx="54" cy="438" r="6" fill="#0A0B0D"/>
<circle cx="6" cy="342" r="6" fill="#0A0B0D"/>
<circle cx="6" cy="390" r="6" fill="#0A0B0D"/>
<circle cx="6" cy="438" r="6" fill="#0A0B0D"/>
<circle cx="6" cy="102" r="6" transform="rotate(-180 6 102)" fill="#0A0B0D"/>
<circle cx="6" cy="198" r="6" transform="rotate(-180 6 198)" fill="#0A0B0D"/>
<circle cx="150" cy="246" r="6" fill="#0A0B0D"/>
<circle cx="102" cy="102" r="6" transform="rotate(-180 102 102)" fill="#0A0B0D"/>
<circle cx="54" cy="246" r="6" fill="#0A0B0D"/>
<circle cx="150" cy="150" r="6" fill="#0A0B0D"/>
<circle cx="102" cy="198" r="6" transform="rotate(-180 102 198)" fill="#0A0B0D"/>
<circle cx="54" cy="54" r="6" transform="rotate(-180 54 54)" fill="#0A0B0D"/>
<circle cx="102" cy="294" r="6" fill="#0A0B0D"/>
<circle cx="150" cy="54" r="6" transform="rotate(-180 150 54)" fill="#0A0B0D"/>
<circle cx="54" cy="150" r="6" transform="rotate(-180 54 150)" fill="#0A0B0D"/>
<circle cx="102" cy="198" r="6" fill="#0A0B0D"/>
<circle cx="150" cy="150" r="6" transform="rotate(-180 150 150)" fill="#0A0B0D"/>
<circle cx="54" cy="246" r="6" transform="rotate(-180 54 246)" fill="#0A0B0D"/>
<circle cx="6" cy="54" r="6" transform="rotate(-180 6 54)" fill="#0A0B0D"/>
<circle cx="150" cy="294" r="6" fill="#0A0B0D"/>
<circle cx="102" cy="54" r="6" transform="rotate(-180 102 54)" fill="#0A0B0D"/>
<circle cx="54" cy="294" r="6" fill="#0A0B0D"/>
<circle cx="6" cy="294" r="6" fill="#0A0B0D"/>
<circle cx="6" cy="150" r="6" transform="rotate(-180 6 150)" fill="#0A0B0D"/>
<circle cx="6" cy="246" r="6" transform="rotate(-180 6 246)" fill="#0A0B0D"/>
<circle cx="6" cy="294" r="6" transform="rotate(-180 6 294)" fill="#0A0B0D"/>
<circle cx="150" cy="198" r="6" fill="#0A0B0D"/>
<circle cx="102" cy="150" r="6" transform="rotate(-180 102 150)" fill="#0A0B0D"/>
</svg>
